<?xml version="1.0" encoding="utf-8"?>
<svg viewBox="0 0 24 24" width="24" height="24" fill="#000000" xmlns="http://www.w3.org/2000/svg">
	<path d="M 3 11 L 11 11 L 11 3 L 3 3 L 3 11 Z M 5 5 L 9 5 L 9 9 L 5 9 L 5 5 Z" style="fill: rgb(17, 17, 17); paint-order: stroke; stroke: rgb(238, 238, 238); transform-origin: 7px 7px;" transform="matrix(0, -1, 1, 0, -0.000001, -0.000001907349)"/>
	<path d="M13,3v8h8V3H13z M19,9h-4V5h4V9z" style="fill: rgb(17, 17, 17); paint-order: stroke; stroke: rgb(238, 238, 238);" transform="matrix(1, 0, 0, 1, 3.552713678800501e-15, 1.7763568394002505e-15)"/>
	<path d="M3,21h8v-8H3V21z M5,15h4v4H5V15z" style="fill: rgb(17, 17, 17); paint-order: stroke; stroke: rgb(238, 238, 238);" transform="matrix(1, 0, 0, 1, 3.552713678800501e-15, 1.7763568394002505e-15)"/>
	<path d="M 13.049 21 L 15 21 L 20.5 18 L 20.5 16 L 15 13 L 13.049 13 L 13.049 21 Z M 15.049 15 L 18.464 17 L 15.049 19 L 15.049 15 Z" style="fill: rgb(255, 0, 0); paint-order: stroke; stroke: rgb(238, 238, 238);" transform="matrix(1, 0, 0, 1, 3.552713678800501e-15, 1.7763568394002505e-15)"/>
</svg>